<?xml version="1.0" encoding="utf-8"?>
<!-- Generator: Adobe Illustrator 23.0.2, SVG Export Plug-In . SVG Version: 6.00 Build 0)  -->
<svg version="1.1" id="Layer_1" xmlns="http://www.w3.org/2000/svg" xmlns:xlink="http://www.w3.org/1999/xlink" x="0px" y="0px"
	 viewBox="0 0 3079.21 2000" style="enable-background:new 0 0 3079.21 2000;" xml:space="preserve">
<style type="text/css">
	.st0{fill:#FFFFFF;}
	.st1{fill:#FDE9E4;}
	.st2{fill:#3C8F7C;}
	.st3{fill:#96D9C9;}
	.st4{fill:#50BFA5;}
	.st5{fill:#3CB4C5;}
	.st6{fill:#D1D1D1;}
	.st7{fill:#9BC1F9;}
	.st8{fill:#DD513A;}
	.st9{fill:#0E2E35;}
	.st10{fill:#FAE0B2;}
	.st11{fill:#F7CC7F;}
	.st12{fill:#F79C8D;}
	.st13{fill:#F47458;}
	.st14{fill:#F7A491;}
	.st15{fill:#256653;}
	.st16{fill:#184655;}
	.st17{display:none;}
	.st18{display:inline;}
	.st19{display:none;fill:#F47458;}
</style>
<g>
	<rect x="0" y="0" class="st0" width="3079.21" height="2000"/>
	<g>
		<g>
			<path class="st1" d="M1004.59,126.32c417.42-25.95,855.06,109.21,790.73,305.14c-64.33,195.93,343.93-69.59,506.85,1.05
				c115.99,50.29,69.63,203.39,125.74,265.08c128.66,141.44,245.42-54.34,419.27,137.36c131.36,144.85,86,897.63-365.62,1040.72
				l-1928.94-1.96l-134.45-22.23c0,0-387.31-226.89-110.25-436.19c187.33-141.52,52.54-244.29,32.17-309.08
				c-23.39-74.39-77.98-204.31,159.85-299.65c237.83-95.34,176.42-302.8,170.57-345.75C664.66,417.84,587.17,152.27,1004.59,126.32
				L1004.59,126.32z"/>
			<g>
				<g>
					<path class="st2" d="M553.31,1423.68c-48.08-71.68-59.72-159.9-61.02-221.28c-1.41-66.64,8.72-116.94,8.82-117.44l-3.33-1.08
						c-0.1,0.51-10.32,51.17-8.91,118.25c1.3,61.99,13.07,151.12,61.75,223.68L553.31,1423.68z"/>
				</g>
				<g>
					<path class="st2" d="M511.87,1072.38c-0.58,15.11-6.59,27.99-15.63,36.08c-8.33-10.21-13.31-24.42-12.73-39.53
						c0.58-15.11,6.59-27.99,15.63-36.08C507.48,1043.05,512.45,1057.27,511.87,1072.38z"/>
				</g>
				<g>
					<path class="st2" d="M482.38,1108.27c8.18,12.77,11.1,27.53,9.09,40.51c-11.91-2.48-23.65-10.6-31.83-23.37
						c-8.18-12.77-11.1-27.53-9.09-40.51C462.47,1087.39,474.21,1095.51,482.38,1108.27z"/>
				</g>
				<g>
					<path class="st2" d="M466.44,1149.84c12.26,7.62,20.82,19.74,24.41,32.71c-11.26,3.75-24.68,2.22-36.95-5.39
						c-12.26-7.62-20.82-19.73-24.41-32.71C440.75,1140.7,454.17,1142.23,466.44,1149.84z"/>
				</g>
				<g>
					<path class="st2" d="M473.84,1206.66c9.71,6.05,15.98,16.76,18.01,28.79c-9.73,4.7-20.86,4.57-30.57-1.48
						c-9.71-6.05-15.98-16.76-18.01-28.79C452.99,1200.48,464.13,1200.61,473.84,1206.66z"/>
				</g>
				<g>
					<path class="st2" d="M510.61,1137.7c10.45-6.26,22.37-7.02,32.73-3.14c-2.29,11.47-9.1,21.94-19.55,28.2
						c-10.45,6.26-22.37,7.02-32.73,3.14C493.35,1154.44,500.16,1143.97,510.61,1137.7z"/>
				</g>
				<g>
					<path class="st2" d="M510.84,1177.12c10.45-6.27,22.37-7.02,32.73-3.14c-2.29,11.47-9.1,21.94-19.55,28.2
						c-10.45,6.26-22.37,7.02-32.73,3.14C493.58,1193.86,500.39,1183.39,510.84,1177.12z"/>
				</g>
			</g>
			<g>
				<g>
					<path class="st3" d="M503.77,1775.69c-100.79-36.7-171.29-124.23-212.68-191.19c-44.94-72.7-66.24-137.55-66.45-138.19
						l-4.45,1.77c0.21,0.65,21.66,65.98,66.88,139.17c41.79,67.63,113.02,156.05,215.06,193.21L503.77,1775.69z"/>
				</g>
				<g>
					<path class="st3" d="M228.58,1422.74c9.18,17.29,10.77,36.93,5.86,53.96c-16.02-3.91-30.88-15.24-40.05-32.53
						c-9.18-17.29-10.77-36.93-5.86-53.96C204.55,1394.12,219.4,1405.46,228.58,1422.74z"/>
				</g>
				<g>
					<path class="st3" d="M218.71,1488.86c17.52,6.88,30.41,20.66,36.59,36.86c-15.04,7.86-33.54,9.31-51.06,2.43
						c-17.52-6.88-30.41-20.66-36.59-36.86C182.69,1483.43,201.19,1481.98,218.71,1488.86z"/>
				</g>
				<g>
					
						<ellipse transform="matrix(0.99 -0.1411 0.1411 0.99 -219.2481 48.1118)" class="st3" cx="229.61" cy="1569.94" rx="47.37" ry="20.8"/>
				</g>
				<g>
					<path class="st3" d="M263.31,1607.01c18.77-2.48,36.3,3.34,48.78,14.55c-10.25,14.2-26.36,24.46-45.13,26.94
						c-18.77,2.48-36.3-3.34-48.78-14.55C228.43,1619.75,244.54,1609.49,263.31,1607.01z"/>
				</g>
				<g>
					<path class="st3" d="M260.47,1516.97c1.02-18.25,8.63-34.73,19.83-45.98c9.96,10.87,15.75,27.11,14.73,45.36
						c-1.02,18.25-8.63,34.73-19.83,45.98C265.24,1551.47,259.45,1535.23,260.47,1516.97z"/>
				</g>
				<g>
					<path class="st3" d="M297.58,1576.81c0.75-18.26,8.13-34.88,19.17-46.33c10.13,10.67,16.15,26.79,15.4,45.05
						c-0.75,18.26-8.13,34.88-19.17,46.33C302.85,1611.19,296.83,1595.07,297.58,1576.81z"/>
				</g>
				<g>
					<path class="st3" d="M323.91,1666.8c7.16-3.78,15.03-3.9,21.67-1.02c-2.03,7.46-6.99,14.12-14.14,17.9s-15.03,3.9-21.67,1.02
						C311.8,1677.24,316.75,1670.58,323.91,1666.8z"/>
				</g>
			</g>
			<path class="st2" d="M745.47,1678.63c0,0,78.36-172.99,52.16-211.6c-36.2-53.35-81.21,110.35-83.41,95.96
				c-20.73-135.88-16.39-307.25-113.36-333.22c-55.12-14.76,3.64,127.99-3.2,164.77c-6.84,36.78-98.54-94.53-155.01-164.01
				c-56.47-69.47-91.05-31.14-58.32,53.14c31.65,81.5,146.33,177,120.66,185.17c-25.67,8.17-169.61-105.36-191.3-63.52
				c-26.6,51.3,195.13,141.86,172.88,152.08c-22.25,10.22-127.87-37.81-127.87,3.05c0,40.87,145.96,51.08,142.16,68.75
				c-6.15,28.61-97.83-44.64-104.99-4.94c-7.32,40.6,124.46,43.68,119.86,75.44c-2.65,18.25-35.84-0.85-41.84,24.24
				c-13.69,57.21,193.98,137.39,193.98,137.39L745.47,1678.63z"/>
			<path class="st3" d="M890.11,1717.86c31.53,14.77,23.02,51.45,23.02,51.45s85.48-66.75,117.44-27.79
				c31.96,38.96,15.17,115.32-22.32,127.74c-13.28,4.4-62.36,6.25-120.75,6.68c-106.41,0.77-242.74-2.96-242.74-2.96
				S861.75,1704.58,890.11,1717.86z"/>
			<g>
				<g>
					<g>
						<path class="st4" d="M663.74,1810.83l3.02-2.58c-68.49-83.44-97.74-188.02-110.21-261.07
							c-13.54-79.27-10.8-139.55-10.77-140.15l-4.16-0.75c-0.03,0.6-2.79,61.28,10.81,141.03
							C565.01,1620.99,594.52,1726.5,663.74,1810.83z"/>
					</g>
					<g>
						<path class="st4" d="M554.94,1393.79c2.03,18.01-2.63,33.57-11.63,43.56c-11.46-11.81-19.76-28.53-21.79-46.53
							c-2.03-18.01,2.63-33.57,11.63-43.56C544.62,1359.07,552.91,1375.78,554.94,1393.79z"/>
					</g>
					<g>
						<path class="st4" d="M528.22,1435.73c11.74,14.86,17.76,32.31,17.75,47.84c-14.23-2.48-29.26-11.67-41-26.53
							c-11.74-14.86-17.76-32.31-17.75-47.84C501.45,1411.68,516.48,1420.87,528.22,1435.73z"/>
					</g>
					<g>
						<path class="st4" d="M517.2,1485.83c15.55,8.57,27.62,22.65,34.09,37.95c-12.36,4.92-28.16,3.64-43.71-4.93
							c-15.55-8.57-27.62-22.65-34.09-37.95C485.85,1475.98,501.65,1477.26,517.2,1485.83z"/>
					</g>
					<g>
						<path class="st4" d="M544.99,1568.31c6.71,3.11,12.15,8.67,15.3,14.92c-4.98,2.49-11.58,2.47-18.29-0.64
							c-6.71-3.11-12.15-8.67-15.3-14.92C531.68,1565.18,538.28,1565.2,544.99,1568.31z"/>
					</g>
					<g>
						<path class="st4" d="M553.43,1599.07c6.71,3.11,12.15,8.67,15.3,14.92c-4.98,2.49-11.58,2.47-18.29-0.64
							c-6.71-3.11-12.15-8.67-15.3-14.92C540.11,1595.93,546.71,1595.95,553.43,1599.07z"/>
					</g>
					<g>
						<path class="st4" d="M566.14,1469.62c10.97-7.87,24.63-9.25,37.31-5.05c-0.6,13.74-6.61,26.47-17.58,34.35
							c-10.97,7.87-24.63,9.25-37.31,5.05C549.16,1490.23,555.16,1477.49,566.14,1469.62z"/>
					</g>
					<g>
						<path class="st4" d="M573.44,1516.52c10.97-7.87,24.62-9.25,37.31-5.05c-0.6,13.74-6.61,26.47-17.58,34.34
							c-10.97,7.87-24.62,9.25-37.31,5.05C556.46,1537.12,562.47,1524.39,573.44,1516.52z"/>
					</g>
					<g>
						<path class="st4" d="M578.24,1584.24c7.14-5.13,16.03-6.02,24.28-3.29c-0.39,8.94-4.3,17.23-11.44,22.35
							c-7.14,5.13-16.03,6.02-24.28,3.29C567.19,1597.65,571.1,1589.36,578.24,1584.24z"/>
					</g>
				</g>
			</g>
			<path class="st4" d="M715.39,1873.44c0,0-100.13-128.55-141.98-148.25c-44.6-20.99-5.93,51.74-5.93,51.74
				s-95.36-93.68-117.76-70.29c-22.4,23.39,1.52,45.28,1.52,45.28s-79.85-14.84-91.5,15.08c-17.89,45.97,113.45,68.83,113.45,68.83
				s-62.92-13.81-50.33,14.65C441.85,1893.4,715.39,1873.44,715.39,1873.44z"/>
			<path class="st3" d="M359.74,1767c11.64-29.91,91.5-15.08,91.5-15.08s-23.92-21.89-1.52-45.28
				c22.4-23.39,97.05,31.85,97.05,31.85s-11.57-50.77,44.51-10.83c40.05,28.53,117.36,134.93,117.36,134.93L359.74,1767z"/>
			<g>
				<g>
					<path class="st4" d="M641.77,1871.51c0,0,159.55,11.28,190.62-17.29c31.08-28.57,0.25-80.33,0.25-80.33s54.75-43.28,53.9-71.54
						c-0.86-28.26-36.52-13.92-36.52-13.92s60.45-77.84,46.12-92.65c-26.71-27.57-96.61,53.34-96.61,53.34s20.74-38.49-1.14-44.6
						c-33-9.22-57.28,85.71-57.28,85.71s6.16-37.49-16.59-32.51C683.69,1666.66,641.77,1871.51,641.77,1871.51z"/>
				</g>
			</g>
			<path class="st4" d="M2267.25,1431.65l12.88-31.23c9.99-22.97,35.57-33.94,57.12-24.5l0,0c54.31,23.79,77.92,90,52.74,147.89
				l-18.41,42.32c-8.07,18.54-5.26,38.94,5.62,53.32c9.88,13.06,11.49,31.22,4.64,46.97l-9.71,22.31
				c-10.51,24.16-30.96,42.05-55.21,49.42c-14.18,4.32-26.71,15-33.33,30.22l-13.74,31.59c-15.2,34.93-54.08,51.61-86.84,37.25
				l-18.69-8.19c-32.77-14.35-47.01-54.3-31.82-89.23l0,0c24.57-41.76,22.61-72.93,13.91-94.07c-12.8-31.09-12.65-66.85,1.2-98.69
				l1.94-4.46c14.62-33.6,42.85-58.69,76.46-69.43C2240.83,1468.4,2256.3,1456.82,2267.25,1431.65z"/>
			<path class="st3" d="M2033.18,1870.38c26.36-34.29,172.8-216.39,267.04-247c104.02-33.79,5.98,100.41,5.98,100.41
				s184.53-202.46,252.24-184.21c62.07,16.73,0,142.22,0,142.22s69.91-69.49,154.69-69.49c82.51,0-61.97,250.15-69.54,263.34
				l-401.99-0.85L2033.18,1870.38z"/>
			<g>
				<g>
					<path class="st2" d="M2591.46,1479.5c-75.39,118.15-130.32,255.24-161.78,394.67l-7.46-0.08
						c31.33-136.51,88.18-274.68,163.45-392.7c17.49-27.43,36.38-59.97,69.13-70.67c0.63-0.21,0.87,0.76,0.27,0.99
						C2625.15,1423.01,2607.83,1453.85,2591.46,1479.5z"/>
				</g>
				<g>
					<path class="st2" d="M2446.82,1874.42c84.25-114.96,187.61-222.42,309.4-314.81c1.22-0.92,2.86,1.2,1.63,2.15
						c-115.51,89.09-217.33,193.84-303.32,312.73L2446.82,1874.42z"/>
				</g>
				<path class="st2" d="M2598.35,1406.22c1.94,2.86,9.37,10.33,11.55,20.15c2.93,9.31,0.62,20.96,0.37,20.56
					c-0.56,0.23,8.6-7.54,11.46-19.89c3.7-11.85,1.11-28.29-3.5-33.73c-7.96-12.31-21.85-13.56-24.55-7.59
					C2590.81,1391.64,2594.45,1399.71,2598.35,1406.22z"/>
				<path class="st2" d="M2616.39,1511.69c-2.81-2-10.11-9.61-19.85-11.99c-9.22-3.13-20.88-1.03-20.47-0.77
					c-0.24,0.56,7.68-8.48,20.05-11.1c11.88-3.48,28.21-0.56,33.54,4.17c12.11,8.22,13.08,22.19,7.08,24.78
					C2630.77,1519.53,2622.8,1515.73,2616.39,1511.69z"/>
				<path class="st2" d="M2589.17,1557.91c-2.81-2-10.11-9.6-19.85-11.99c-9.22-3.12-20.88-1.03-20.47-0.77
					c-0.24,0.56,7.68-8.48,20.04-11.1c11.88-3.48,28.21-0.56,33.54,4.17c12.11,8.22,13.08,22.19,7.08,24.78
					C2603.55,1565.75,2595.58,1561.95,2589.17,1557.91z"/>
				<path class="st2" d="M2686.26,1665.12c-2.81-2-10.11-9.6-19.85-11.99c-9.22-3.13-20.88-1.03-20.47-0.77
					c-0.24,0.56,7.68-8.48,20.04-11.1c11.88-3.48,28.21-0.56,33.54,4.17c12.11,8.22,13.08,22.19,7.08,24.78
					C2700.64,1672.96,2692.67,1669.16,2686.26,1665.12z"/>
				<path class="st2" d="M2735.86,1621.27c-2.82-2-10.11-9.6-19.85-11.99c-9.22-3.13-20.88-1.03-20.47-0.77
					c-0.24,0.56,7.68-8.48,20.05-11.1c11.88-3.48,28.21-0.56,33.54,4.17c12.11,8.22,13.08,22.19,7.08,24.78
					C2750.24,1629.12,2742.27,1625.31,2735.86,1621.27z"/>
				<path class="st2" d="M2560.27,1458.53c2.37,2.52,10.88,8.72,14.57,18.07c4.36,8.73,3.9,20.6,3.59,20.24
					c-0.52,0.32,7.3-8.8,8.19-21.45c1.79-12.29-3.35-28.11-8.75-32.76c-9.79-10.9-23.71-9.93-25.44-3.61
					C2550.53,1445.32,2555.39,1452.71,2560.27,1458.53z"/>
				<path class="st2" d="M2520.24,1510.94c3.37,1.79,15.14,5.04,21.06,13.88c6.7,7.86,7.55,21.31,7.1,21.04
					c-0.63,0.58,8.39-12.97,8-27.48c0.83-14.49-7.74-29.93-15.3-32.79c-13.99-7.94-31.9-0.86-33.37,6.94
					C2506.04,1500.4,2513.22,1506.56,2520.24,1510.94z"/>
				<path class="st2" d="M2478.12,1590.34c3.62,1.2,15.77,2.42,23.08,10.13c7.92,6.62,11.02,19.73,10.53,19.54
					c-0.53,0.67,6.09-14.2,3.28-28.43c-1.61-14.42-12.65-28.2-20.58-29.74c-15.13-5.47-31.59,4.54-31.73,12.47
					C2462.35,1582.34,2470.46,1587.2,2478.12,1590.34z"/>
				<path class="st2" d="M2602.77,1645.64c2.64,1.65,12.03,4.97,16.34,12.49c5,6.78,4.93,17.77,4.59,17.52
					c-0.55,0.43,7.56-10.07,8.06-21.89c1.5-11.74-4.6-24.79-10.58-27.54c-10.93-7.26-25.9-2.52-27.54,3.74
					C2591.82,1636.25,2597.31,1641.67,2602.77,1645.64z"/>
				<path class="st2" d="M2667.67,1424.81c-1.58-1.31-5.56-6.13-11.22-7.96c-5.32-2.25-12.3-1.53-12.08-1.36
					c-0.17,0.32,4.91-4.68,12.34-5.69c7.18-1.54,16.71,0.91,19.66,3.94c6.8,5.4,6.77,13.7,3.11,14.97
					C2675.83,1430.09,2671.29,1427.49,2667.67,1424.81z"/>
				<path class="st2" d="M2652.55,1391.07c0.07,2.05,1.44,8.16-0.56,13.78c-1.47,5.6-6.31,10.71-6.3,10.43
					c-0.35-0.06,6.69-1.05,12.03-6.34c5.6-4.77,9.48-13.84,8.89-18.03c-0.1-8.7-6.68-13.74-9.92-11.61
					C2653.38,1381.37,2652.65,1386.57,2652.55,1391.07z"/>
				<path class="st2" d="M2771.58,1576.6c-1.58-1.31-5.56-6.13-11.22-7.96c-5.32-2.25-12.3-1.53-12.08-1.36
					c-0.17,0.32,4.91-4.68,12.34-5.69c7.18-1.54,16.71,0.91,19.66,3.94c6.81,5.4,6.77,13.7,3.11,14.97
					C2779.75,1581.88,2775.2,1579.28,2771.58,1576.6z"/>
				<path class="st2" d="M2753.35,1542.58c0.24,2.04,2.1,8.01,0.56,13.78c-1.01,5.7-5.41,11.19-5.43,10.91
					c-0.36-0.03,6.58-1.59,11.47-7.3c5.19-5.21,8.32-14.57,7.39-18.7c-0.81-8.66-7.78-13.15-10.83-10.75
					C2753.37,1532.83,2753.08,1538.08,2753.35,1542.58z"/>
			</g>
			<g>
				<path class="st2" d="M2669.69,1738.31c0.5,3.17,3.79,12.37,1.76,21.46c-1.2,8.96-7.73,17.81-7.77,17.37
					c-0.56-0.03,10.17-2.91,17.42-12.14c7.76-8.47,12.05-23.27,10.33-29.66c-1.83-13.47-12.99-20.02-17.6-16.08
					C2669.11,1723.11,2668.98,1731.31,2669.69,1738.31z"/>
				<path class="st2" d="M2601.87,1762.68c0.5,3.17,3.79,12.37,1.76,21.46c-1.2,8.96-7.73,17.82-7.77,17.37
					c-0.56-0.03,10.17-2.91,17.42-12.14c7.76-8.47,12.05-23.27,10.33-29.66c-1.83-13.47-12.99-20.02-17.6-16.08
					C2601.29,1747.47,2601.16,1755.67,2601.87,1762.68z"/>
				<path class="st2" d="M2532.96,1793.5c0.5,3.17,3.79,12.37,1.76,21.46c-1.2,8.96-7.72,17.81-7.77,17.37
					c-0.56-0.03,10.17-2.91,17.42-12.14c7.76-8.47,12.05-23.27,10.33-29.66c-1.83-13.47-12.99-20.02-17.6-16.08
					C2532.37,1778.29,2532.25,1786.49,2532.96,1793.5z"/>
				<path class="st2" d="M2689.93,1801.89c-1.39-2.62-4.09-11.24-10.64-16.8c-5.87-5.93-15.6-8.8-15.39-8.45
					c-0.4,0.33,9.11-3.55,19.59-0.81c10.43,1.89,21.83,10.4,24.11,16.07c6.14,10.95,1.56,22.02-4.02,21.71
					C2697.96,1813.42,2693.31,1807.45,2689.93,1801.89z"/>
				<path class="st2" d="M2619.39,1826.95c-1.39-2.62-4.09-11.24-10.64-16.8c-5.87-5.93-15.6-8.8-15.39-8.45
					c-0.4,0.33,9.11-3.55,19.59-0.81c10.43,1.89,21.83,10.4,24.11,16.07c6.14,10.95,1.56,22.02-4.02,21.7
					C2627.42,1838.48,2622.76,1832.51,2619.39,1826.95z"/>
				<path class="st2" d="M2743.66,1776.1c-1.22-1.46-4.05-6.52-8.89-9.14c-4.47-2.95-10.96-3.46-10.78-3.27
					c-0.21,0.26,5.26-3.43,12.19-3.11c6.8-0.19,15.07,3.64,17.26,6.89c5.3,6.06,3.88,13.62,0.33,14.16
					C2750.22,1782.28,2746.51,1779.15,2743.66,1776.1z"/>
				<path class="st2" d="M2735.52,1742.82c-0.28,1.88-0.05,7.68-2.81,12.46c-2.27,4.86-7.53,8.7-7.48,8.44
					c-0.31-0.12,6.27,0.17,12.01-3.75c5.89-3.4,10.95-11.01,11.11-14.93c1.36-7.95-3.79-13.65-7.1-12.24
					C2737.89,1734.12,2736.36,1738.73,2735.52,1742.82z"/>
				<path class="st2" d="M2739.02,1761.63c-21.73,1.96-43.2,5.96-64.3,11.51c-38.49,10.11-75.51,25.05-111.94,40.94
					c-17.91,7.81-35.93,15.51-53.5,24.07c-8.21,4-16.48,8.01-24.05,13.14c-10.2,6.91-26.12,20.76-28.05,22.95l8.36,0.25
					c5.72-4.66,26.7-22.38,55.82-36.41c69.02-33.25,140.72-67.35,217.71-75.81C2739.47,1762.22,2739.43,1761.59,2739.02,1761.63z"/>
			</g>
		</g>
		<g>
			<path class="st5" d="M887.51,1875.94l-0.84-1022.57c-0.02-19.54,15.81-35.4,35.36-35.41l1283.33-1.05
				c19.54-0.02,35.4,15.81,35.41,35.36l0.84,1022.57L887.51,1875.94z"/>
			<polygon class="st0" points="2222.16,1855.41 906.91,1856.5 908.14,916.68 2223.39,915.6 			"/>
			<path class="st6" d="M1568.04,1008.65l-563,0.46c-11.56,0.01-20.93-9.35-20.94-20.9l0,0c-0.01-11.55,9.35-20.93,20.9-20.94
				l563-0.46c11.55-0.01,20.93,9.35,20.94,20.9l0,0C1588.95,999.27,1579.59,1008.64,1568.04,1008.65z"/>
			<path class="st6" d="M1444.66,1069.8l-439.57,0.36c-11.55,0.01-20.93-9.35-20.94-20.9l0,0c-0.01-11.55,9.35-20.93,20.9-20.94
				l439.57-0.36c11.55-0.01,20.93,9.35,20.94,20.9l0,0C1465.57,1060.41,1456.21,1069.79,1444.66,1069.8z"/>
			<path class="st6" d="M1193.98,1131.05l-188.84,0.16c-11.55,0.01-20.93-9.35-20.94-20.9l0,0c-0.01-11.55,9.35-20.93,20.9-20.94
				l188.84-0.16c11.55-0.01,20.93,9.35,20.94,20.9l0,0C1214.89,1121.66,1205.53,1131.04,1193.98,1131.05z"/>
			<path class="st6" d="M1352.74,1191.96l-347.56,0.29c-11.55,0.01-20.93-9.35-20.94-20.9l0,0c-0.01-11.55,9.35-20.93,20.9-20.94
				l347.56-0.29c11.55-0.01,20.93,9.35,20.94,20.9l0,0C1373.66,1182.58,1364.3,1191.95,1352.74,1191.96z"/>
			<path class="st6" d="M1517.55,1191.83l-103.74,0.09c-11.55,0.01-20.93-9.35-20.94-20.91l0,0c-0.01-11.55,9.35-20.93,20.9-20.94
				l103.74-0.09c11.55-0.01,20.93,9.35,20.94,20.9l0,0C1538.46,1182.44,1529.1,1191.82,1517.55,1191.83z"/>
			<path class="st6" d="M1680.37,1191.69l-103.74,0.09c-11.56,0.01-20.93-9.35-20.94-20.9l0,0c-0.01-11.55,9.35-20.93,20.9-20.94
				l103.74-0.08c11.55-0.01,20.93,9.35,20.94,20.9l0,0C1701.28,1182.31,1691.92,1191.68,1680.37,1191.69z"/>
			<path class="st6" d="M1612.51,1069.66l-103.74,0.08c-11.55,0.01-20.93-9.35-20.94-20.9l0,0c-0.01-11.55,9.35-20.93,20.9-20.94
				l103.74-0.08c11.55-0.01,20.93,9.35,20.94,20.9l0,0C1633.43,1060.27,1624.07,1069.65,1612.51,1069.66z"/>
			<path class="st6" d="M1775.68,1069.52l-103.74,0.09c-11.55,0.01-20.93-9.35-20.94-20.9l0,0c-0.01-11.55,9.35-20.93,20.9-20.94
				l103.74-0.09c11.55-0.01,20.93,9.35,20.94,20.9l0,0C1796.59,1060.14,1787.23,1069.51,1775.68,1069.52z"/>
			<path class="st6" d="M1941.66,1069.39l-103.74,0.08c-11.55,0.01-20.93-9.35-20.94-20.9l0,0c-0.01-11.55,9.35-20.93,20.9-20.94
				l103.74-0.08c11.55-0.01,20.93,9.35,20.94,20.9l0,0C1962.57,1060,1953.22,1069.38,1941.66,1069.39z"/>
			<path class="st6" d="M1839.43,1191.56l-103.74,0.09c-11.55,0.01-20.93-9.35-20.94-20.9l0,0c-0.01-11.55,9.35-20.93,20.9-20.94
				l103.74-0.09c11.55-0.01,20.93,9.35,20.94,20.9l0,0C1860.34,1182.18,1850.98,1191.55,1839.43,1191.56z"/>
			<path class="st6" d="M1998.38,1191.43l-103.74,0.09c-11.55,0.01-20.93-9.35-20.94-20.9l0,0c-0.01-11.55,9.35-20.93,20.9-20.94
				l103.74-0.09c11.55-0.01,20.93,9.35,20.94,20.9l0,0C2019.29,1182.05,2009.93,1191.42,1998.38,1191.43z"/>
			<path class="st6" d="M1887.54,1252.57l-882.3,0.72c-11.56,0.01-20.93-9.35-20.94-20.9l0,0c-0.01-11.55,9.35-20.93,20.9-20.94
				l882.3-0.73c11.55-0.01,20.93,9.35,20.94,20.9l0,0C1908.45,1243.18,1899.09,1252.56,1887.54,1252.57z"/>
			<path class="st6" d="M1498.56,1313.93l-493.27,0.41c-11.55,0.01-20.93-9.35-20.94-20.9l0,0c-0.01-11.55,9.35-20.93,20.9-20.94
				l493.27-0.41c11.55-0.01,20.93,9.35,20.94,20.9l0,0C1519.47,1304.55,1510.11,1313.92,1498.56,1313.93z"/>
			<path class="st6" d="M1424.86,1375.04l-419.53,0.34c-11.55,0.01-20.93-9.35-20.94-20.9l0,0c-0.01-11.55,9.35-20.93,20.9-20.94
				l419.53-0.34c11.55-0.01,20.93,9.35,20.94,20.9l0,0C1445.78,1365.65,1436.42,1375.03,1424.86,1375.04z"/>
			<path class="st6" d="M1747.45,1374.77l-266.68,0.22c-11.55,0.01-20.93-9.35-20.94-20.9l0,0c-0.01-11.55,9.35-20.93,20.9-20.94
				l266.67-0.22c11.56-0.01,20.93,9.35,20.94,20.9l0,0C1768.36,1365.39,1759,1374.76,1747.45,1374.77z"/>
			<path class="st6" d="M2070.03,1374.5l-266.67,0.22c-11.55,0.01-20.93-9.35-20.94-20.9l0,0c-0.01-11.55,9.35-20.93,20.9-20.94
				l266.67-0.22c11.55-0.01,20.93,9.35,20.94,20.9l0,0C2090.95,1365.12,2081.59,1374.5,2070.03,1374.5z"/>
			<path class="st6" d="M1678.2,1435.87l-672.81,0.55c-11.55,0.01-20.93-9.35-20.94-20.9l0,0c-0.01-11.55,9.35-20.93,20.9-20.94
				l672.81-0.55c11.55-0.01,20.93,9.35,20.94,20.9l0,0C1699.12,1426.49,1689.76,1435.86,1678.2,1435.87z"/>
			<path class="st6" d="M1918.03,1435.67l-182.14,0.15c-11.55,0.01-20.93-9.35-20.94-20.9l0,0c-0.01-11.55,9.35-20.93,20.9-20.94
				l182.14-0.15c11.55-0.01,20.93,9.35,20.94,20.9l0,0C1938.94,1426.29,1929.58,1435.67,1918.03,1435.67z"/>
			<path class="st6" d="M1545.93,1497.03l-540.5,0.44c-11.55,0.01-20.93-9.35-20.94-20.9l0,0c-0.01-11.55,9.35-20.93,20.9-20.94
				l540.5-0.44c11.55-0.01,20.93,9.35,20.94,20.9l0,0C1566.85,1487.64,1557.49,1497.02,1545.93,1497.03z"/>
			<path class="st6" d="M1733.01,1496.87l-129.29,0.11c-11.56,0.01-20.93-9.35-20.94-20.9l0,0c-0.01-11.55,9.35-20.93,20.9-20.94
				l129.29-0.11c11.55-0.01,20.93,9.35,20.94,20.9l0,0C1753.93,1487.49,1744.57,1496.86,1733.01,1496.87z"/>
			<path class="st6" d="M1298.42,1558.27l-292.93,0.24c-11.55,0.01-20.93-9.35-20.94-20.9l0,0c-0.01-11.55,9.35-20.93,20.9-20.94
				l292.93-0.24c11.55-0.01,20.93,9.35,20.94,20.9l0,0C1319.33,1548.89,1309.97,1558.26,1298.42,1558.27z"/>
			<path class="st6" d="M1185.24,1619.41l-179.7,0.15c-11.55,0.01-20.93-9.35-20.94-20.9l0,0c-0.01-11.55,9.35-20.93,20.9-20.94
				l179.7-0.15c11.55-0.01,20.93,9.35,20.94,20.9l0,0C1206.15,1610.03,1196.79,1619.4,1185.24,1619.41z"/>
			<path class="st6" d="M1347.7,1619.28l-102.34,0.08c-11.55,0.01-20.93-9.35-20.94-20.9l0,0c-0.01-11.55,9.35-20.93,20.9-20.94
				l102.33-0.08c11.55-0.01,20.93,9.35,20.94,20.9v0C1368.61,1609.89,1359.26,1619.27,1347.7,1619.28z"/>
			<path class="st6" d="M1508.06,1619.15l-102.34,0.08c-11.55,0.01-20.93-9.35-20.94-20.9l0,0c-0.01-11.55,9.35-20.93,20.9-20.94
				l102.34-0.08c11.55-0.01,20.93,9.35,20.94,20.9l0,0C1528.97,1609.76,1519.61,1619.14,1508.06,1619.15z"/>
			<path class="st6" d="M1669.82,1619.01l-102.34,0.08c-11.55,0.01-20.93-9.35-20.94-20.9l0,0c-0.01-11.55,9.35-20.93,20.9-20.94
				l102.34-0.08c11.55-0.01,20.93,9.35,20.94,20.9l0,0C1690.73,1609.63,1681.37,1619,1669.82,1619.01z"/>
			<path class="st6" d="M1488.88,1680.21l-483.29,0.4c-11.55,0.01-20.93-9.35-20.94-20.9l0,0c-0.01-11.55,9.35-20.93,20.9-20.94
				l483.29-0.4c11.55-0.01,20.93,9.35,20.94,20.9l0,0C1509.79,1670.82,1500.44,1680.2,1488.88,1680.21z"/>
			<path class="st6" d="M1712.06,1680.02l-166.34,0.14c-11.56,0.01-20.93-9.35-20.94-20.9l0,0c-0.01-11.55,9.35-20.93,20.9-20.94
				l166.34-0.14c11.55-0.01,20.93,9.35,20.94,20.9l0,0C1732.98,1670.64,1723.62,1680.01,1712.06,1680.02z"/>
			<path class="st6" d="M1932.9,1679.84l-166.34,0.14c-11.55,0.01-20.93-9.35-20.94-20.9l0,0c-0.01-11.55,9.35-20.93,20.9-20.94
				l166.34-0.14c11.55-0.01,20.93,9.35,20.94,20.9l0,0C1953.82,1670.46,1944.46,1679.83,1932.9,1679.84z"/>
			<path class="st6" d="M1264.81,1741.44l-259.17,0.21c-11.55,0.01-20.93-9.35-20.94-20.9l0,0c-0.01-11.55,9.35-20.93,20.9-20.94
				l259.17-0.21c11.55-0.01,20.93,9.35,20.94,20.9l0,0C1285.72,1732.05,1276.37,1741.43,1264.81,1741.44z"/>
			<path class="st6" d="M1425.17,1741.3l-102.1,0.08c-11.55,0.01-20.93-9.35-20.94-20.9l0,0c-0.01-11.55,9.35-20.93,20.9-20.94
				l102.1-0.08c11.55-0.01,20.93,9.35,20.94,20.9l0,0C1446.08,1731.92,1436.72,1741.29,1425.17,1741.3z"/>
			<path class="st6" d="M1583.17,1741.17l-102.1,0.08c-11.55,0.01-20.93-9.35-20.94-20.9l0,0c-0.01-11.55,9.35-20.93,20.9-20.94
				l102.1-0.08c11.55-0.01,20.93,9.35,20.94,20.9l0,0C1604.09,1731.79,1594.73,1741.16,1583.17,1741.17z"/>
			<path class="st7" d="M2072.69,889.26L2072.69,889.26c-6.32,0.01-11.45-5.12-11.46-11.44l0,0c0-6.32,5.12-11.45,11.44-11.46l0,0
				c6.32-0.01,11.45,5.12,11.46,11.44l0,0C2084.13,884.13,2079.01,889.26,2072.69,889.26z"/>
			<path class="st7" d="M2128.14,889.21L2128.14,889.21c-10.43,0.01-18.9-8.44-18.91-18.88l0,0c-0.01-10.43,8.44-18.9,18.88-18.91
				l0,0c10.43-0.01,18.9,8.44,18.91,18.88l0,0C2147.03,880.74,2138.57,889.21,2128.14,889.21z"/>
			<path class="st8" d="M2192.21,889.16L2192.21,889.16c-12.64,0.01-22.9-10.23-22.91-22.87l0,0c-0.01-12.64,10.23-22.9,22.87-22.91
				l0,0c12.64-0.01,22.9,10.23,22.91,22.87l0,0C2215.09,878.89,2204.85,889.15,2192.21,889.16z"/>
		</g>
		<g>
			<polygon class="st9" points="707.29,1886.52 686.59,1886.52 763.74,1485.64 780.95,1488.92 			"/>
			<polygon class="st9" points="1278.11,1884.71 1295.32,1881.44 1220.95,1485.64 1203.74,1488.92 			"/>
			<polygon class="st9" points="1086.3,1886.52 1065.6,1886.52 1142.75,1485.64 1159.96,1488.92 			"/>
			<polygon class="st9" points="895.91,1886.52 912.72,1886.72 838.76,1487.44 821.54,1490.72 			"/>
			<path class="st10" d="M971,945.76c-68.15,7.32-156.35,15.05-244.89,165.82c-96.77,164.78-45.83,410.92,30.55,479.32
				c76.38,68.4,325.84,152.86,535.54,26.42c0,0,126.62-76.62,61.64-203.79c-100-195.69-85.87-236.5-130.58-313.19
				C1178.54,1023.66,1115.67,930.22,971,945.76z"/>
			<path class="st11" d="M726.11,1111.58c60.43-102.9,120.71-139.16,174.55-154.15c-20.83,21.63-41.94,49.45-63.08,85.44
				c-96.77,164.78-45.83,410.92,30.55,479.32c67.74,60.66,271.59,133.92,463.12,61.55c-19.69,21.86-39.05,33.58-39.05,33.58
				c-209.7,126.43-459.16,41.98-535.54-26.42C680.28,1522.5,629.34,1276.36,726.11,1111.58z"/>
			<g>
				<polygon class="st12" points="1189.81,1196.22 1207.33,1248.95 1153.94,1227.88 				"/>
				<path class="st8" d="M1134.78,1039.3c3.56,0.15,13.31,3.41,27.57,30.36c18.21,34.42,44.83,138.39,44.83,138.39l-79.45,29.59
					l-10.21-21.7l-16.81-167.07C1100.71,1048.87,1133.79,1039.26,1134.78,1039.3z"/>
				<path class="st13" d="M1029.75,1024.32c22.72,0.03,78.93,6.66,105.03,14.99c0,0,19.17,164.75-17.26,289.93
					c-8.15,28.02,6.74,116.16,6.74,116.16l-235.43-3.11c0,0,27.89-213.09,17.38-247.5c-10.51-34.42-10.76-154.37-10.76-154.37
					s1.61-0.25,52.89-9.12C972.27,1027.17,1005.49,1024.28,1029.75,1024.32z"/>
				<path class="st14" d="M1002.31,1751.18c0,0,5.21,60.11,14.78,76.76c9.58,16.65-0.5,44.95-1.01,48.83
					c-0.5,3.88-20.16,9.43-51.41,6.1c-31.25-3.33-30.75-10.54-28.22-22.2c2.52-11.65,19.15-26.64,20.16-37.73
					c1.01-11.1-9.58-51.05-9.58-51.05L1002.31,1751.18z"/>
				<path class="st15" d="M1097.7,1395.79c0,0,162.52-9.02,198.81,12.96c36.29,21.98-6.56,67.11-6.56,67.11
					s-132.31,57.53-353.81,70.31c-52.45,3.03-56.97-136.77-47.16-148.33C898.78,1386.26,1097.7,1395.79,1097.7,1395.79z"/>
				<path class="st16" d="M960.78,1887.54c-32.18-3.43-28.2-19.24-25.6-31.24c1.62-7.51,10.86-16.37,16.36-24.75
					c2.88,2.29,7.56,6.34,21.53,10.46c14.51,4.29,34.4-4.2,47.08-9.51c4.52,16.81,4.72,38.26,4.3,41.51
					C1023.93,1878.02,992.96,1890.97,960.78,1887.54z"/>
				<path class="st2" d="M978.54,1512.05c6.49,49.13,38.64,293.73,38.64,293.73l-74.59,9.25c0,0-91.73-319.25-87.03-368.08
					c4.7-48.83,39.04-52.94,39.04-52.94S961.36,1381.99,978.54,1512.05z"/>
				<path class="st14" d="M892.9,1058.73c22.01-8.26,32.78,190.08,35.75,271.71c38.98,3.75,106.93,0.03,123.84-1.24
					c7.96-0.6,26.3-7.32,34.21-8.35c8.11-1.06,15.46-1.62,19.45-0.92c1.46,0.26,42.09,16.87,45.57,20.51
					c4.31,4.52,15.96,15.92,14,20.85c-1.97,4.93-22.41-13.73-22.41-13.73l-9.99-5.61c12.44,12.15,36.16,28.16,32.75,33.98
					c-3.33,5.68-24.74-10.56-39.99-21.63c13.08,11.82,29.34,32.96,25.59,36.26c-3.37,2.96-21.85-21.52-41.61-28.57
					c-7.32-2.61-14.62,4.62-20.38,5.5c-4.23,0.64-10.77,2.01-14.92,0.83l-21.39-6.07c-7.29,0.66-7.47,4.97-14.83,6.54
					c-8.54,1.82-22.56,3.73-33.44,6.39c-62.65,15.31-83.55,22.42-102.73,22.41C844.24,1397.56,840.87,1078.25,892.9,1058.73z"/>
				<path class="st8" d="M851.12,1244.93c-4.12-83.62-3.52-186.69,43.36-204.27c18.49-6.94,51.1,34.78,45.24,205.97
					C914.69,1248.7,877.95,1250.36,851.12,1244.93z"/>
				<polygon class="st12" points="1113.37,1209.01 1108.59,1209.01 1036.76,1385.53 1041.71,1384.77 				"/>
				<path class="st14" d="M1220.44,1802.6c0,0-6.51,20.87,5.15,34.67c11.65,13.8,60.08,27.34,66.44,34.81
					c6.36,7.47,5.88,13.84,5.88,13.84l-135.92-3.74l1.48-41.05l6.26-29.5L1220.44,1802.6z"/>
				<path class="st16" d="M1234.04,1844.15c0,0-34.93,14.13-51.8,5.76c-16.87-8.37-16.36-10.68-21.24-7.56
					c-4.88,3.12-6.63,41.6-6.63,41.6l152.84,4.49c10.64-0.25,16.01-8.08,7.37-14.78c-5.93-4.6-12.77-7.67-16.66-9.91
					C1285.97,1856.89,1234.04,1844.15,1234.04,1844.15z"/>
				<path class="st2" d="M1215.29,1434.31c10.5-22.11,34.4-50.89,76.44-33.56c40.1,16.53,50.86,57.17,38.21,98.78
					c-12.65,41.61-95.93,286.23-98.84,319.87l-66.5,0.44c0,0,12.09-193.69,15.05-240.51
					C1182.51,1534.28,1197.11,1472.57,1215.29,1434.31z"/>
				<path d="M1323.24,1209.01h-222.28c-5.88,0-11.18,3.56-13.41,9.03l-68.44,167.5H896.56c-3.43,0-6.2,2.78-6.2,6.22l0,0
					c0,3.43,2.78,6.22,6.2,6.22h348.77c9.59,0,18.28-5.65,22.21-14.42l68.92-154.04
					C1340.77,1219.88,1333.75,1209.01,1323.24,1209.01z"/>
				<path class="st0" d="M1203.56,1306.54c-1.5,7.52-8.04,12.55-14.61,11.24c-6.57-1.32-10.67-8.48-9.17-16.01
					c1.5-7.52,8.04-12.56,14.61-11.24C1200.96,1291.85,1205.07,1299.02,1203.56,1306.54z"/>
				<g>
					<path class="st9" d="M1082.57,823.1c-6.7-2.26-13.3-4.8-19.66-7.87c-7.2-3.47-16.53-7.54-22.42-8.45
						c-12.41-1.92-33.72-0.64-45.49,12.13c-14.66,15.91-40.71,2.87-35.47,86.18c5.94,94.29,58.37,83.94,59.64,82.34
						c1.27-1.6,46.76-60.32,46.76-60.32s15.9,34.79,15.9,33.51C1081.84,959.39,1163.04,850.2,1082.57,823.1z"/>
					<path class="st14" d="M1042.77,994.39l4.53,33.69c0,0,10.14,48.54-2.91,57.9c-13.04,9.36-55.47-59.28-55.47-59.28l4.48-85.37
						L1042.77,994.39z"/>
					<path class="st13" d="M991.96,969c10.77,29.12,36.44,47.02,54.65,53.96l-3.84-28.56l-49.37-53.06L991.96,969z"/>
					<path class="st14" d="M1040.09,848.43c27.64-4.46,52.43,17.77,51.74,45.43c-0.3,12.03-1.29,27.04-3.79,43.21
						c-6.01,38.89-32.54,73.14-50.09,70.08c-17.55-3.06-61.69-36.61-53.92-91.95C988.84,881.03,1011.09,853.11,1040.09,848.43z"/>
					<path class="st14" d="M996.21,921.81c-1.48,8.55-8.33,14.5-15.3,13.29c-6.97-1.22-11.42-9.13-9.94-17.69
						c1.48-8.55,8.33-14.5,15.3-13.29C993.24,905.34,997.69,913.25,996.21,921.81z"/>
					<path class="st9" d="M986.27,904.12c0,0,21.21,5.27,29.09-8.37c7.87-13.64,36.02-43.09,71.81-30.88
						c35.78,12.21-31.49-29.68-34.35-29.68s-37.21-0.24-37.21-0.24s-26.48,21.78-27.44,24.18c-0.95,2.39-8.59,28.48-8.59,28.48
						L986.27,904.12z"/>
				</g>
				<path class="st0" d="M1025.08,961.05l38.6,7.38c0,0-3.68,14.54-20.75,11.79C1022.12,976.86,1025.08,961.05,1025.08,961.05z"/>
			</g>
		</g>
		<g>
			<path class="st13" d="M1722.9,354.62h371.1c20.19,0,36.55,16.27,36.55,36.35v151.09c0,20.07-16.37,36.34-36.55,36.34h-283.01
				l-56.54,41.34l11.37-41.34h-42.93c-20.19,0-36.55-16.27-36.55-36.34V390.96C1686.35,370.89,1702.71,354.62,1722.9,354.62z"/>
			<g class="st17">
				<g class="st18">
					<path class="st11" d="M1822.02,507.46c-7.26,0-14.52,0-21.78,0v-33.45h-25.71v33.45c-7.26,0-14.64,0-21.78,0v-83.33
						c7.14,0,14.52,0,21.78,0v30.24h25.71v-30.24c7.26,0,14.52,0,21.78,0V507.46z"/>
					<path class="st11" d="M1835.11,443.18c0-6.43,0-12.74,0-19.05h61.9c0,6.31,0,12.62,0,19.05h-20.36v64.28
						c-7.02,0-14.04,0-21.07,0v-64.28H1835.11z"/>
					<path class="st11" d="M1983.8,423.89h7.62v83.56c-7.26,0-14.52,0-21.78,0v-37.14l-17.74,18.57h-2.38l-17.62-18.57v37.14
						c-7.26,0-14.53,0-21.79,0v-83.56h7.86l32.62,36.18L1983.8,423.89z"/>
					<path class="st11" d="M2033.92,488.29h30.24c0,7.14,0,12.02,0,19.17c-17.14,0-34.76,0-51.67,0v-83.33c7.14,0,14.17,0,21.43,0
						C2033.92,467.22,2033.92,452.82,2033.92,488.29z"/>
				</g>
			</g>
		</g>
		<g>
			<path class="st11" d="M1572.42,514.8h-359.1c-18.47,0-33.44,14.88-33.44,33.25v157.08c0,18.36,14.97,33.25,33.44,33.25h62.22
				l-19.71,47.99l63.61-47.99h252.98c18.47,0,33.44-14.88,33.44-33.25V548.05C1605.85,529.69,1590.88,514.8,1572.42,514.8z"/>
			<g class="st17">
				<g class="st18">
					<path class="st19" d="M1268.22,669.88c0-28.82,0-57.64,0-86.58c12.49,0,25.35,0,38.1,0c41.44,0.13,41.44,64.45,0,64.45h-15.95
						v22.14C1282.94,669.88,1275.52,669.88,1268.22,669.88z M1306.2,603.08c-5.2-0.12-10.76,0-15.83,0c0,7.05,0,17.69,0,24.74h15.83
						C1318.32,627.83,1319.06,603.21,1306.2,603.08z"/>
					<path class="st19" d="M1426.19,669.88c-7.54,0-15.09,0-22.64,0v-34.76h-26.71v34.76c-7.55,0-15.22,0-22.64,0v-86.58
						c7.42,0,15.09,0,22.64,0v31.42h26.71v-31.42c7.54,0,15.09,0,22.64,0V669.88z"/>
				</g>
			</g>
		</g>
	</g>
</g>
</svg>
