<?xml version="1.0" encoding="utf-8"?>
<!-- Generator: Adobe Illustrator 23.0.2, SVG Export Plug-In . SVG Version: 6.00 Build 0)  -->
<svg version="1.1" id="Layer_1" xmlns="http://www.w3.org/2000/svg" xmlns:xlink="http://www.w3.org/1999/xlink" x="0px" y="0px"
	 viewBox="0 0 838.08 1261.44" style="enable-background:new 0 0 838.08 1261.44;" xml:space="preserve">
<style type="text/css">
	.st0{display:none;fill:#FFFFFF;}
	.st1{display:none;}
	.st2{display:inline;fill:#FDE9E4;}
	.st3{display:inline;}
	.st4{fill:#3C8F7C;}
	.st5{fill:#96D9C9;}
	.st6{display:inline;fill:#3C8F7C;}
	.st7{display:inline;fill:#96D9C9;}
	.st8{fill:#50BFA5;}
	.st9{display:inline;fill:#50BFA5;}
	.st10{display:inline;fill:#3CB4C5;}
	.st11{display:inline;fill:#FFFFFF;}
	.st12{display:inline;fill:#D1D1D1;}
	.st13{display:inline;fill:#9BC1F9;}
	.st14{display:inline;fill:#DD513A;}
	.st15{fill:#9BB8BC;}
	.st16{fill:#FAE0B2;}
	.st17{fill:#F7CC7F;}
	.st18{fill:#F79C8D;}
	.st19{fill:#F4F4F4;}
	.st20{fill:#F7A491;}
	.st21{fill:#256653;}
	.st22{fill:#C1BFA8;}
	.st23{fill:#FFFFFF;}
	.st24{fill:#301707;}
	.st25{fill:#F47458;}
	.st26{display:inline;fill:#F47458;}
	.st27{display:none;fill:#F7CC7F;}
	.st28{display:none;fill:#F47458;}
</style>
<g>
	<rect x="-606.6" y="-701.64" class="st0" width="3079.21" height="2000"/>
	<g>
		<g class="st1">
			<path class="st2" d="M397.99-575.32c417.42-25.95,855.06,109.21,790.73,305.14c-64.33,195.93,343.93-69.59,506.85,1.05
				c115.99,50.29,69.63,203.39,125.74,265.08c128.66,141.44,245.42-54.34,419.27,137.36c131.36,144.85,86,897.63-365.62,1040.72
				l-1928.94-1.96l-134.45-22.23c0,0-387.31-226.89-110.25-436.19c187.33-141.52,52.54-244.29,32.17-309.08
				c-23.39-74.39-77.98-204.31,159.85-299.65C131.16,9.57,69.75-197.88,63.9-240.84C58.06-283.8-19.43-549.37,397.99-575.32
				L397.99-575.32z"/>
			<g class="st3">
				<g>
					<path class="st4" d="M-53.29,722.04c-48.08-71.68-59.72-159.9-61.02-221.28c-1.41-66.64,8.72-116.94,8.82-117.44l-3.33-1.08
						c-0.1,0.5-10.32,51.17-8.91,118.25c1.3,61.99,13.07,151.12,61.75,223.68L-53.29,722.04z"/>
				</g>
				<g>
					<path class="st4" d="M-94.73,370.74c-0.58,15.11-6.59,27.99-15.63,36.08c-8.33-10.21-13.31-24.42-12.73-39.53
						c0.58-15.11,6.59-27.99,15.63-36.08C-99.12,341.41-94.15,355.63-94.73,370.74z"/>
				</g>
				<g>
					<path class="st4" d="M-124.22,406.63c8.18,12.77,11.1,27.53,9.09,40.51c-11.91-2.48-23.65-10.6-31.83-23.37
						c-8.18-12.77-11.1-27.53-9.09-40.51C-144.13,385.75-132.39,393.87-124.22,406.63z"/>
				</g>
				<g>
					<path class="st4" d="M-140.16,448.2c12.26,7.62,20.82,19.74,24.41,32.71c-11.26,3.75-24.68,2.22-36.95-5.39
						c-12.26-7.62-20.82-19.73-24.41-32.71C-165.85,439.06-152.43,440.59-140.16,448.2z"/>
				</g>
				<g>
					<path class="st4" d="M-132.76,505.02c9.71,6.05,15.98,16.76,18.01,28.79c-9.73,4.7-20.86,4.57-30.57-1.48
						c-9.71-6.05-15.98-16.76-18.01-28.79C-153.61,498.84-142.47,498.97-132.76,505.02z"/>
				</g>
				<g>
					<path class="st4" d="M-95.99,436.06c10.45-6.26,22.37-7.02,32.73-3.14c-2.29,11.47-9.1,21.94-19.55,28.2
						c-10.45,6.26-22.37,7.02-32.73,3.14C-113.25,452.8-106.44,442.33-95.99,436.06z"/>
				</g>
				<g>
					<path class="st4" d="M-95.76,475.48c10.45-6.27,22.37-7.02,32.73-3.14c-2.29,11.47-9.1,21.94-19.55,28.2
						c-10.45,6.26-22.37,7.02-32.73,3.14C-113.02,492.22-106.21,481.75-95.76,475.48z"/>
				</g>
			</g>
			<g class="st3">
				<g>
					<path class="st5" d="M-102.83,1074.05c-100.79-36.7-171.29-124.23-212.68-191.19c-44.94-72.7-66.24-137.55-66.45-138.19
						l-4.45,1.77c0.21,0.65,21.66,65.98,66.88,139.17c41.79,67.63,113.02,156.05,215.06,193.21L-102.83,1074.05z"/>
				</g>
				<g>
					<path class="st5" d="M-378.02,721.1c9.18,17.29,10.77,36.93,5.86,53.96c-16.02-3.91-30.88-15.24-40.05-32.53
						c-9.18-17.29-10.77-36.93-5.86-53.96C-402.05,692.48-387.2,703.82-378.02,721.1z"/>
				</g>
				<g>
					<path class="st5" d="M-387.89,787.22c17.52,6.88,30.41,20.66,36.59,36.86c-15.04,7.86-33.54,9.31-51.06,2.43
						c-17.52-6.88-30.41-20.66-36.59-36.86C-423.91,781.79-405.41,780.34-387.89,787.22z"/>
				</g>
				<g>
					
						<ellipse transform="matrix(0.99 -0.1411 0.1411 0.99 -126.3051 -44.5111)" class="st5" cx="-376.99" cy="868.3" rx="47.37" ry="20.8"/>
				</g>
				<g>
					<path class="st5" d="M-343.29,905.37c18.77-2.48,36.3,3.34,48.78,14.55c-10.25,14.2-26.36,24.46-45.13,26.94
						c-18.77,2.48-36.3-3.34-48.78-14.55C-378.17,918.11-362.06,907.85-343.29,905.37z"/>
				</g>
				<g>
					<path class="st5" d="M-346.13,815.33c1.02-18.25,8.63-34.73,19.83-45.98c9.96,10.87,15.75,27.11,14.73,45.36
						c-1.02,18.25-8.63,34.73-19.84,45.98C-341.36,849.83-347.15,833.59-346.13,815.33z"/>
				</g>
				<g>
					<path class="st5" d="M-309.02,875.17c0.75-18.26,8.13-34.88,19.17-46.33c10.13,10.67,16.15,26.79,15.4,45.05
						c-0.75,18.26-8.13,34.88-19.17,46.33C-303.75,909.55-309.77,893.43-309.02,875.17z"/>
				</g>
				<g>
					<path class="st5" d="M-282.69,965.16c7.16-3.78,15.03-3.9,21.67-1.02c-2.03,7.46-6.99,14.12-14.14,17.9
						c-7.16,3.78-15.03,3.9-21.67,1.02C-294.8,975.6-289.85,968.94-282.69,965.16z"/>
				</g>
			</g>
			<path class="st6" d="M138.87,976.99c0,0,78.36-173,52.16-211.6c-36.2-53.35-81.21,110.35-83.41,95.96
				C86.89,725.48,91.23,554.11-5.74,528.14c-55.12-14.76,3.64,127.99-3.2,164.77c-6.84,36.78-98.54-94.53-155.01-164.01
				c-56.47-69.47-91.05-31.14-58.32,53.14c31.65,81.5,146.33,177,120.66,185.17c-25.67,8.17-169.61-105.36-191.3-63.52
				c-26.6,51.3,195.13,141.86,172.88,152.08c-22.25,10.22-127.87-37.81-127.87,3.05s145.96,51.08,142.16,68.75
				c-6.15,28.61-97.83-44.64-104.99-4.94c-7.32,40.6,124.46,43.68,119.86,75.44c-2.65,18.25-35.84-0.85-41.84,24.24
				c-13.69,57.21,193.98,137.39,193.98,137.39L138.87,976.99z"/>
			<path class="st7" d="M283.51,1016.22c31.53,14.77,23.02,51.45,23.02,51.45s85.48-66.75,117.44-27.79
				c31.96,38.96,15.16,115.32-22.32,127.74c-13.28,4.4-62.36,6.25-120.75,6.68c-106.41,0.77-242.74-2.96-242.74-2.96
				S255.15,1002.94,283.51,1016.22z"/>
			<g class="st3">
				<g>
					<g>
						<path class="st8" d="M57.14,1109.19l3.02-2.58c-68.49-83.44-97.74-188.02-110.21-261.07C-63.59,766.27-60.85,706-60.82,705.4
							l-4.16-0.75c-0.03,0.6-2.79,61.28,10.81,141.03C-41.59,919.35-12.08,1024.86,57.14,1109.19z"/>
					</g>
					<g>
						<path class="st8" d="M-51.66,692.15c2.03,18.01-2.63,33.57-11.63,43.56c-11.46-11.81-19.76-28.53-21.79-46.53
							c-2.03-18.01,2.63-33.57,11.63-43.56C-61.98,657.43-53.69,674.14-51.66,692.15z"/>
					</g>
					<g>
						<path class="st8" d="M-78.38,734.09c11.74,14.86,17.76,32.31,17.75,47.84c-14.23-2.48-29.26-11.67-41-26.53
							c-11.74-14.86-17.76-32.31-17.75-47.84C-105.15,710.04-90.12,719.23-78.38,734.09z"/>
					</g>
					<g>
						<path class="st8" d="M-89.4,784.19c15.55,8.57,27.62,22.65,34.09,37.95c-12.36,4.92-28.16,3.64-43.71-4.93
							c-15.55-8.57-27.62-22.65-34.09-37.95C-120.75,774.34-104.95,775.62-89.4,784.19z"/>
					</g>
					<g>
						<path class="st8" d="M-61.61,866.67c6.71,3.11,12.15,8.67,15.3,14.92c-4.98,2.49-11.58,2.47-18.29-0.64
							c-6.71-3.11-12.15-8.67-15.3-14.92C-74.92,863.54-68.32,863.56-61.61,866.67z"/>
					</g>
					<g>
						<path class="st8" d="M-53.17,897.43c6.71,3.11,12.15,8.67,15.3,14.92c-4.98,2.49-11.58,2.47-18.29-0.64
							c-6.71-3.11-12.15-8.67-15.3-14.92C-66.49,894.29-59.89,894.31-53.17,897.43z"/>
					</g>
					<g>
						<path class="st8" d="M-40.46,767.98c10.97-7.87,24.62-9.25,37.31-5.05c-0.6,13.74-6.61,26.47-17.58,34.35
							c-10.97,7.87-24.63,9.25-37.31,5.05C-57.44,788.59-51.44,775.85-40.46,767.98z"/>
					</g>
					<g>
						<path class="st8" d="M-33.16,814.88c10.97-7.87,24.62-9.25,37.31-5.05c-0.6,13.74-6.61,26.47-17.58,34.34
							s-24.62,9.25-37.31,5.05C-50.14,835.48-44.13,822.75-33.16,814.88z"/>
					</g>
					<g>
						<path class="st8" d="M-28.36,882.6c7.14-5.13,16.03-6.02,24.28-3.29c-0.39,8.94-4.3,17.23-11.44,22.35
							c-7.14,5.13-16.03,6.02-24.28,3.29C-39.41,896.01-35.5,887.72-28.36,882.6z"/>
					</g>
				</g>
			</g>
			<path class="st9" d="M108.79,1171.8c0,0-100.13-128.55-141.98-148.25c-44.6-20.99-5.93,51.74-5.93,51.74
				s-95.36-93.68-117.76-70.29c-22.4,23.39,1.52,45.28,1.52,45.28s-79.85-14.84-91.5,15.08c-17.89,45.97,113.45,68.83,113.45,68.83
				s-62.92-13.81-50.33,14.65C-164.75,1191.76,108.79,1171.8,108.79,1171.8z"/>
			<path class="st7" d="M-246.86,1065.36c11.64-29.91,91.5-15.08,91.5-15.08s-23.92-21.89-1.52-45.28
				c22.4-23.39,97.05,31.85,97.05,31.85s-11.57-50.77,44.51-10.83c40.05,28.53,117.36,134.93,117.36,134.93L-246.86,1065.36z"/>
			<g class="st3">
				<g>
					<path class="st8" d="M35.17,1169.87c0,0,159.55,11.28,190.62-17.29c31.08-28.57,0.25-80.33,0.25-80.33s54.75-43.28,53.9-71.54
						c-0.86-28.26-36.52-13.92-36.52-13.92s60.45-77.84,46.12-92.65c-26.71-27.57-96.61,53.34-96.61,53.34s20.74-38.49-1.14-44.6
						c-33-9.22-57.28,85.71-57.28,85.71s6.16-37.49-16.59-32.51C77.09,965.02,35.17,1169.87,35.17,1169.87z"/>
				</g>
			</g>
			<path class="st9" d="M1660.65,730.01l12.88-31.23c9.99-22.97,35.57-33.94,57.12-24.5l0,0c54.31,23.79,77.92,90,52.74,147.89
				l-18.41,42.32c-8.07,18.54-5.26,38.94,5.62,53.32c9.88,13.06,11.49,31.22,4.64,46.97l-9.71,22.31
				c-10.51,24.16-30.96,42.05-55.21,49.42c-14.18,4.32-26.71,15-33.33,30.22l-13.74,31.59c-15.2,34.93-54.08,51.61-86.84,37.25
				l-18.69-8.19c-32.77-14.35-47.01-54.3-31.82-89.23l0,0c24.57-41.76,22.61-72.93,13.91-94.07c-12.8-31.09-12.65-66.85,1.2-98.69
				l1.94-4.46c14.62-33.6,42.85-58.69,76.46-69.43C1634.23,766.76,1649.7,755.18,1660.65,730.01z"/>
			<path class="st7" d="M1426.58,1168.74c26.36-34.29,172.8-216.39,267.04-247c104.02-33.79,5.98,100.41,5.98,100.41
				s184.53-202.46,252.24-184.21c62.07,16.73,0,142.22,0,142.22s69.91-69.49,154.69-69.49c82.51,0-61.97,250.15-69.54,263.34
				l-401.99-0.85L1426.58,1168.74z"/>
			<g class="st3">
				<g>
					<path class="st4" d="M1984.86,777.86c-75.39,118.15-130.32,255.24-161.78,394.67l-7.46-0.08
						c31.33-136.51,88.18-274.68,163.45-392.7c17.49-27.43,36.38-59.97,69.13-70.67c0.63-0.21,0.87,0.76,0.27,0.99
						C2018.55,721.37,2001.23,752.21,1984.86,777.86z"/>
				</g>
				<g>
					<path class="st4" d="M1840.22,1172.78c84.25-114.96,187.61-222.42,309.4-314.81c1.22-0.92,2.86,1.2,1.63,2.15
						c-115.51,89.09-217.33,193.84-303.32,312.73L1840.22,1172.78z"/>
				</g>
				<path class="st4" d="M1991.75,704.58c1.94,2.86,9.37,10.33,11.55,20.15c2.93,9.31,0.62,20.96,0.37,20.56
					c-0.56,0.23,8.6-7.54,11.46-19.89c3.7-11.85,1.11-28.29-3.5-33.73c-7.96-12.31-21.85-13.56-24.55-7.59
					C1984.21,690,1987.85,698.07,1991.75,704.58z"/>
				<path class="st4" d="M2009.79,810.05c-2.81-2-10.11-9.61-19.85-11.99c-9.22-3.13-20.88-1.03-20.47-0.77
					c-0.24,0.56,7.68-8.48,20.05-11.1c11.88-3.48,28.21-0.56,33.54,4.17c12.11,8.22,13.08,22.19,7.08,24.78
					C2024.17,817.89,2016.2,814.09,2009.79,810.05z"/>
				<path class="st4" d="M1982.57,856.27c-2.81-2-10.11-9.6-19.85-11.99c-9.22-3.12-20.88-1.03-20.47-0.77
					c-0.24,0.56,7.68-8.48,20.04-11.1c11.88-3.48,28.21-0.56,33.54,4.17c12.11,8.22,13.08,22.19,7.08,24.78
					C1996.95,864.11,1988.98,860.31,1982.57,856.27z"/>
				<path class="st4" d="M2079.66,963.48c-2.81-2-10.11-9.6-19.85-11.99c-9.22-3.13-20.88-1.03-20.47-0.77
					c-0.24,0.56,7.68-8.48,20.05-11.1c11.88-3.48,28.21-0.56,33.54,4.17c12.11,8.22,13.08,22.19,7.08,24.78
					C2094.04,971.32,2086.07,967.52,2079.66,963.48z"/>
				<path class="st4" d="M2129.26,919.63c-2.82-2-10.11-9.6-19.85-11.99c-9.22-3.13-20.88-1.03-20.47-0.77
					c-0.24,0.56,7.68-8.48,20.05-11.1c11.88-3.48,28.21-0.56,33.54,4.17c12.11,8.22,13.08,22.19,7.08,24.78
					C2143.64,927.48,2135.67,923.67,2129.26,919.63z"/>
				<path class="st4" d="M1953.67,756.89c2.37,2.52,10.88,8.72,14.57,18.07c4.36,8.73,3.9,20.6,3.59,20.24
					c-0.52,0.32,7.3-8.8,8.19-21.46c1.79-12.29-3.35-28.11-8.75-32.76c-9.79-10.9-23.71-9.93-25.44-3.61
					C1943.93,743.68,1948.79,751.07,1953.67,756.89z"/>
				<path class="st4" d="M1913.64,809.3c3.37,1.79,15.14,5.04,21.06,13.88c6.7,7.86,7.55,21.31,7.1,21.04
					c-0.63,0.58,8.39-12.97,8-27.48c0.83-14.49-7.74-29.93-15.3-32.79c-13.99-7.94-31.9-0.86-33.37,6.94
					C1899.44,798.76,1906.62,804.92,1913.64,809.3z"/>
				<path class="st4" d="M1871.52,888.7c3.62,1.2,15.77,2.42,23.08,10.13c7.92,6.62,11.02,19.73,10.53,19.54
					c-0.53,0.67,6.09-14.2,3.28-28.43c-1.61-14.42-12.65-28.2-20.58-29.74c-15.13-5.47-31.59,4.54-31.73,12.47
					C1855.75,880.7,1863.86,885.56,1871.52,888.7z"/>
				<path class="st4" d="M1996.17,944c2.64,1.65,12.03,4.97,16.34,12.49c5,6.78,4.93,17.77,4.59,17.52
					c-0.55,0.43,7.56-10.07,8.06-21.89c1.5-11.74-4.6-24.79-10.58-27.54c-10.93-7.26-25.9-2.52-27.54,3.74
					C1985.22,934.61,1990.71,940.03,1996.17,944z"/>
				<path class="st4" d="M2061.07,723.17c-1.58-1.31-5.56-6.13-11.22-7.96c-5.32-2.25-12.3-1.53-12.08-1.36
					c-0.17,0.32,4.91-4.68,12.34-5.69c7.18-1.54,16.71,0.91,19.66,3.94c6.8,5.4,6.77,13.7,3.11,14.97
					C2069.23,728.45,2064.69,725.85,2061.07,723.17z"/>
				<path class="st4" d="M2045.95,689.43c0.07,2.05,1.44,8.16-0.56,13.78c-1.47,5.6-6.31,10.71-6.3,10.43
					c-0.35-0.06,6.69-1.05,12.03-6.34c5.6-4.77,9.48-13.84,8.89-18.03c-0.1-8.7-6.68-13.74-9.92-11.61
					C2046.78,679.73,2046.05,684.93,2045.95,689.43z"/>
				<path class="st4" d="M2164.98,874.96c-1.58-1.31-5.56-6.13-11.22-7.96c-5.32-2.25-12.3-1.53-12.08-1.36
					c-0.17,0.32,4.91-4.68,12.34-5.69c7.18-1.54,16.71,0.91,19.66,3.94c6.81,5.4,6.77,13.7,3.11,14.97
					C2173.15,880.24,2168.6,877.64,2164.98,874.96z"/>
				<path class="st4" d="M2146.75,840.94c0.24,2.04,2.1,8.01,0.56,13.78c-1.01,5.7-5.41,11.19-5.43,10.91
					c-0.36-0.03,6.58-1.59,11.47-7.3c5.19-5.21,8.32-14.57,7.39-18.7c-0.81-8.66-7.78-13.15-10.83-10.75
					C2146.77,831.19,2146.48,836.44,2146.75,840.94z"/>
			</g>
			<g class="st3">
				<path class="st4" d="M2063.09,1036.67c0.5,3.17,3.79,12.37,1.76,21.46c-1.2,8.96-7.73,17.81-7.77,17.37
					c-0.56-0.03,10.17-2.91,17.42-12.14c7.76-8.47,12.05-23.27,10.33-29.66c-1.83-13.47-12.99-20.02-17.6-16.08
					C2062.51,1021.47,2062.38,1029.67,2063.09,1036.67z"/>
				<path class="st4" d="M1995.27,1061.04c0.5,3.17,3.79,12.37,1.76,21.46c-1.2,8.96-7.73,17.82-7.77,17.37
					c-0.56-0.03,10.17-2.91,17.42-12.14c7.76-8.47,12.05-23.27,10.33-29.66c-1.83-13.47-12.99-20.02-17.6-16.08
					C1994.69,1045.83,1994.56,1054.03,1995.27,1061.04z"/>
				<path class="st4" d="M1926.36,1091.86c0.5,3.17,3.79,12.37,1.76,21.46c-1.2,8.96-7.72,17.81-7.77,17.37
					c-0.56-0.03,10.17-2.91,17.42-12.14c7.76-8.47,12.05-23.27,10.33-29.66c-1.83-13.47-12.99-20.02-17.6-16.08
					C1925.77,1076.65,1925.65,1084.85,1926.36,1091.86z"/>
				<path class="st4" d="M2083.33,1100.25c-1.39-2.62-4.09-11.24-10.64-16.8c-5.87-5.93-15.6-8.8-15.39-8.45
					c-0.4,0.33,9.11-3.55,19.59-0.81c10.43,1.89,21.83,10.4,24.11,16.07c6.14,10.95,1.56,22.02-4.02,21.71
					C2091.36,1111.78,2086.71,1105.81,2083.33,1100.25z"/>
				<path class="st4" d="M2012.79,1125.31c-1.39-2.62-4.09-11.24-10.64-16.8c-5.87-5.93-15.6-8.8-15.39-8.45
					c-0.4,0.33,9.11-3.55,19.59-0.81c10.43,1.89,21.83,10.4,24.11,16.07c6.14,10.95,1.56,22.02-4.02,21.7
					C2020.82,1136.84,2016.16,1130.87,2012.79,1125.31z"/>
				<path class="st4" d="M2137.06,1074.46c-1.22-1.46-4.05-6.52-8.89-9.14c-4.47-2.95-10.96-3.46-10.78-3.27
					c-0.21,0.26,5.26-3.43,12.19-3.11c6.8-0.19,15.07,3.64,17.26,6.89c5.3,6.06,3.88,13.62,0.33,14.16
					C2143.62,1080.64,2139.91,1077.51,2137.06,1074.46z"/>
				<path class="st4" d="M2128.92,1041.18c-0.28,1.88-0.05,7.68-2.81,12.46c-2.27,4.86-7.53,8.7-7.48,8.44
					c-0.31-0.12,6.27,0.17,12.01-3.75c5.89-3.4,10.95-11.01,11.11-14.93c1.36-7.95-3.8-13.65-7.1-12.24
					C2131.29,1032.48,2129.76,1037.09,2128.92,1041.18z"/>
				<path class="st4" d="M2132.42,1059.99c-21.73,1.96-43.2,5.96-64.3,11.51c-38.49,10.11-75.51,25.05-111.94,40.94
					c-17.91,7.81-35.93,15.51-53.5,24.07c-8.21,4-16.48,8.01-24.05,13.14c-10.2,6.91-26.12,20.76-28.05,22.95l8.36,0.25
					c5.72-4.66,26.7-22.38,55.82-36.41c69.02-33.25,140.72-67.35,217.71-75.81C2132.87,1060.58,2132.83,1059.95,2132.42,1059.99z"/>
			</g>
		</g>
		<g class="st1">
			<path class="st10" d="M280.91,1174.3l-0.84-1022.57c-0.02-19.54,15.81-35.4,35.36-35.41l1283.33-1.05
				c19.54-0.02,35.4,15.81,35.41,35.36l0.84,1022.57L280.91,1174.3z"/>
			<polygon class="st11" points="1615.56,1153.77 300.32,1154.86 301.54,215.04 1616.79,213.96 			"/>
			<path class="st12" d="M961.44,307.01l-563,0.46c-11.56,0.01-20.93-9.35-20.94-20.9l0,0c-0.01-11.55,9.35-20.93,20.9-20.94
				l563-0.46c11.55-0.01,20.93,9.35,20.94,20.9l0,0C982.35,297.63,972.99,307,961.44,307.01z"/>
			<path class="st12" d="M838.06,368.16l-439.57,0.36c-11.55,0.01-20.93-9.35-20.94-20.9l0,0c-0.01-11.55,9.35-20.93,20.9-20.94
				l439.57-0.36c11.55-0.01,20.93,9.35,20.94,20.9l0,0C858.97,358.77,849.61,368.15,838.06,368.16z"/>
			<path class="st12" d="M587.38,429.41l-188.84,0.16c-11.55,0.01-20.93-9.35-20.94-20.9l0,0c-0.01-11.55,9.35-20.93,20.9-20.94
				l188.84-0.16c11.55-0.01,20.93,9.35,20.94,20.9l0,0C608.29,420.02,598.93,429.4,587.38,429.41z"/>
			<path class="st12" d="M746.14,490.32l-347.56,0.29c-11.55,0.01-20.93-9.35-20.94-20.9l0,0c-0.01-11.55,9.35-20.93,20.9-20.94
				l347.56-0.29c11.55-0.01,20.93,9.35,20.94,20.9l0,0C767.06,480.94,757.7,490.31,746.14,490.32z"/>
			<path class="st12" d="M910.95,490.19l-103.74,0.09c-11.55,0.01-20.93-9.35-20.94-20.91l0,0c-0.01-11.55,9.35-20.93,20.9-20.94
				l103.74-0.09c11.55-0.01,20.93,9.35,20.94,20.9l0,0C931.86,480.8,922.5,490.18,910.95,490.19z"/>
			<path class="st12" d="M1073.77,490.05l-103.74,0.09c-11.56,0.01-20.93-9.35-20.94-20.9l0,0c-0.01-11.55,9.35-20.93,20.9-20.94
				l103.74-0.08c11.55-0.01,20.93,9.35,20.94,20.9l0,0C1094.68,480.67,1085.32,490.04,1073.77,490.05z"/>
			<path class="st12" d="M1005.91,368.02l-103.74,0.09c-11.55,0.01-20.93-9.35-20.94-20.9l0,0c-0.01-11.55,9.35-20.93,20.9-20.94
				l103.74-0.08c11.55-0.01,20.93,9.35,20.94,20.9l0,0C1026.83,358.63,1017.47,368.01,1005.91,368.02z"/>
			<path class="st12" d="M1169.08,367.88l-103.74,0.09c-11.55,0.01-20.93-9.35-20.94-20.9l0,0c-0.01-11.55,9.35-20.93,20.9-20.94
				l103.74-0.09c11.55-0.01,20.93,9.35,20.94,20.9l0,0C1189.99,358.5,1180.63,367.87,1169.08,367.88z"/>
			<path class="st12" d="M1335.06,367.75l-103.74,0.08c-11.55,0.01-20.93-9.35-20.94-20.9l0,0c-0.01-11.55,9.35-20.93,20.9-20.94
				l103.74-0.08c11.55-0.01,20.93,9.35,20.94,20.9l0,0C1355.97,358.36,1346.62,367.74,1335.06,367.75z"/>
			<path class="st12" d="M1232.83,489.92l-103.74,0.09c-11.55,0.01-20.93-9.35-20.94-20.9l0,0c-0.01-11.55,9.35-20.93,20.9-20.94
				l103.74-0.09c11.55-0.01,20.93,9.35,20.94,20.9l0,0C1253.74,480.54,1244.38,489.91,1232.83,489.92z"/>
			<path class="st12" d="M1391.78,489.79l-103.74,0.09c-11.55,0.01-20.93-9.35-20.94-20.9l0,0c-0.01-11.55,9.35-20.93,20.9-20.94
				l103.74-0.09c11.55-0.01,20.93,9.35,20.94,20.9l0,0C1412.69,480.41,1403.33,489.78,1391.78,489.79z"/>
			<path class="st12" d="M1280.94,550.93l-882.3,0.72c-11.56,0.01-20.93-9.35-20.94-20.9l0,0c-0.01-11.55,9.35-20.93,20.9-20.94
				l882.3-0.73c11.55-0.01,20.93,9.35,20.94,20.9l0,0C1301.85,541.54,1292.49,550.92,1280.94,550.93z"/>
			<path class="st12" d="M891.96,612.29l-493.27,0.41c-11.55,0.01-20.93-9.35-20.94-20.9l0,0c-0.01-11.55,9.35-20.93,20.9-20.94
				l493.27-0.41c11.55-0.01,20.93,9.35,20.94,20.9l0,0C912.87,602.91,903.51,612.28,891.96,612.29z"/>
			<path class="st12" d="M818.26,673.4l-419.53,0.34c-11.55,0.01-20.93-9.35-20.94-20.9l0,0c-0.01-11.55,9.35-20.93,20.9-20.94
				l419.53-0.34c11.55-0.01,20.93,9.35,20.94,20.9l0,0C839.18,664.01,829.82,673.39,818.26,673.4z"/>
			<path class="st12" d="M1140.85,673.13l-266.68,0.22c-11.55,0.01-20.93-9.35-20.94-20.9l0,0c-0.01-11.55,9.35-20.93,20.9-20.94
				l266.67-0.22c11.56-0.01,20.93,9.35,20.94,20.9l0,0C1161.76,663.75,1152.4,673.12,1140.85,673.13z"/>
			<path class="st12" d="M1463.43,672.86l-266.67,0.22c-11.55,0.01-20.93-9.35-20.94-20.9l0,0c-0.01-11.55,9.35-20.93,20.9-20.94
				l266.67-0.22c11.55-0.01,20.93,9.35,20.94,20.9l0,0C1484.35,663.48,1474.99,672.86,1463.43,672.86z"/>
			<path class="st12" d="M1071.6,734.23l-672.81,0.55c-11.55,0.01-20.93-9.35-20.94-20.9l0,0c-0.01-11.55,9.35-20.93,20.9-20.94
				l672.81-0.55c11.55-0.01,20.93,9.35,20.94,20.9l0,0C1092.52,724.85,1083.16,734.22,1071.6,734.23z"/>
			<path class="st12" d="M1311.43,734.03l-182.14,0.15c-11.55,0.01-20.93-9.35-20.94-20.9l0,0c-0.01-11.55,9.35-20.93,20.9-20.94
				l182.14-0.15c11.55-0.01,20.93,9.35,20.94,20.9l0,0C1332.34,724.65,1322.98,734.03,1311.43,734.03z"/>
			<path class="st12" d="M939.33,795.39l-540.5,0.44c-11.55,0.01-20.93-9.35-20.94-20.9l0,0c-0.01-11.55,9.35-20.93,20.9-20.94
				l540.5-0.44c11.55-0.01,20.93,9.35,20.94,20.9l0,0C960.25,786,950.89,795.38,939.33,795.39z"/>
			<path class="st12" d="M1126.41,795.23l-129.29,0.11c-11.56,0.01-20.93-9.35-20.94-20.9l0,0c-0.01-11.55,9.35-20.93,20.9-20.94
				l129.29-0.11c11.55-0.01,20.93,9.35,20.94,20.9l0,0C1147.33,785.85,1137.97,795.22,1126.41,795.23z"/>
			<path class="st12" d="M691.82,856.63l-292.93,0.24c-11.55,0.01-20.93-9.35-20.94-20.9l0,0c-0.01-11.55,9.35-20.93,20.9-20.94
				l292.93-0.24c11.55-0.01,20.93,9.35,20.94,20.9l0,0C712.73,847.25,703.37,856.62,691.82,856.63z"/>
			<path class="st12" d="M578.64,917.77l-179.7,0.15c-11.55,0.01-20.93-9.35-20.94-20.9l0,0c-0.01-11.55,9.35-20.93,20.9-20.94
				l179.7-0.15c11.55-0.01,20.93,9.35,20.94,20.9l0,0C599.55,908.39,590.19,917.76,578.64,917.77z"/>
			<path class="st12" d="M741.1,917.64l-102.34,0.08c-11.55,0.01-20.93-9.35-20.94-20.9l0,0c-0.01-11.55,9.35-20.93,20.9-20.94
				l102.34-0.08c11.55-0.01,20.93,9.35,20.94,20.9v0C762.01,908.25,752.66,917.63,741.1,917.64z"/>
			<path class="st12" d="M901.46,917.51l-102.34,0.08c-11.55,0.01-20.93-9.35-20.94-20.9l0,0c-0.01-11.55,9.35-20.93,20.9-20.94
				l102.34-0.08c11.55-0.01,20.93,9.35,20.94,20.9l0,0C922.37,908.12,913.01,917.5,901.46,917.51z"/>
			<path class="st12" d="M1063.22,917.37l-102.34,0.08c-11.55,0.01-20.93-9.35-20.94-20.9l0,0c-0.01-11.55,9.35-20.93,20.9-20.94
				l102.34-0.08c11.55-0.01,20.93,9.35,20.94,20.9l0,0C1084.13,907.99,1074.77,917.36,1063.22,917.37z"/>
			<path class="st12" d="M882.28,978.57l-483.29,0.4c-11.55,0.01-20.93-9.35-20.94-20.9l0,0c-0.01-11.55,9.35-20.93,20.9-20.94
				l483.29-0.4c11.55-0.01,20.93,9.35,20.94,20.9l0,0C903.19,969.18,893.84,978.56,882.28,978.57z"/>
			<path class="st12" d="M1105.46,978.38l-166.34,0.14c-11.56,0.01-20.93-9.35-20.94-20.9l0,0c-0.01-11.55,9.35-20.93,20.9-20.94
				l166.34-0.14c11.55-0.01,20.93,9.35,20.94,20.9l0,0C1126.38,969,1117.02,978.37,1105.46,978.38z"/>
			<path class="st12" d="M1326.3,978.2l-166.34,0.14c-11.55,0.01-20.93-9.35-20.94-20.9l0,0c-0.01-11.55,9.35-20.93,20.9-20.94
				l166.34-0.14c11.55-0.01,20.93,9.35,20.94,20.9l0,0C1347.22,968.82,1337.86,978.19,1326.3,978.2z"/>
			<path class="st12" d="M658.21,1039.8l-259.17,0.21c-11.55,0.01-20.93-9.35-20.94-20.9l0,0c-0.01-11.55,9.35-20.93,20.9-20.94
				l259.17-0.21c11.55-0.01,20.93,9.35,20.94,20.9l0,0C679.12,1030.41,669.77,1039.79,658.21,1039.8z"/>
			<path class="st12" d="M818.57,1039.66l-102.1,0.08c-11.55,0.01-20.93-9.35-20.94-20.9l0,0c-0.01-11.55,9.35-20.93,20.9-20.94
				l102.1-0.08c11.55-0.01,20.93,9.35,20.94,20.9l0,0C839.48,1030.28,830.12,1039.65,818.57,1039.66z"/>
			<path class="st12" d="M976.57,1039.53l-102.1,0.08c-11.55,0.01-20.93-9.35-20.94-20.9l0,0c-0.01-11.55,9.35-20.93,20.9-20.94
				l102.1-0.08c11.55-0.01,20.93,9.35,20.94,20.9l0,0C997.49,1030.15,988.13,1039.52,976.57,1039.53z"/>
			<path class="st13" d="M1466.09,187.62L1466.09,187.62c-6.32,0.01-11.45-5.12-11.46-11.44l0,0c0-6.32,5.12-11.45,11.44-11.46l0,0
				c6.32-0.01,11.45,5.12,11.45,11.44l0,0C1477.53,182.49,1472.41,187.62,1466.09,187.62z"/>
			<path class="st13" d="M1521.54,187.57L1521.54,187.57c-10.43,0.01-18.9-8.44-18.91-18.88l0,0c-0.01-10.43,8.44-18.9,18.88-18.91
				l0,0c10.43-0.01,18.9,8.44,18.91,18.88l0,0C1540.43,179.1,1531.97,187.57,1521.54,187.57z"/>
			<path class="st14" d="M1585.61,187.52L1585.61,187.52c-12.64,0.01-22.9-10.23-22.91-22.87l0,0
				c-0.01-12.64,10.23-22.9,22.87-22.91l0,0c12.64-0.01,22.9,10.23,22.91,22.87l0,0C1608.49,177.25,1598.25,187.51,1585.61,187.52z"
				/>
		</g>
		<g>
			<polygon class="st15" points="100.69,1184.88 79.99,1184.88 157.14,784 174.35,787.28 			"/>
			<polygon class="st15" points="671.51,1183.07 688.72,1179.8 614.35,784 597.14,787.28 			"/>
			<polygon class="st15" points="479.7,1184.88 459,1184.88 536.15,784 553.36,787.28 			"/>
			<polygon class="st15" points="289.31,1184.88 306.12,1185.08 232.16,785.8 214.94,789.08 			"/>
			<path class="st16" d="M364.4,244.12c-68.15,7.32-156.35,15.05-244.89,165.82c-96.77,164.78-45.83,410.92,30.55,479.32
				c76.38,68.4,325.84,152.86,535.54,26.42c0,0,126.62-76.62,61.64-203.79c-100-195.69-85.87-236.5-130.58-313.19
				C571.94,322.02,509.07,228.58,364.4,244.12z"/>
			<path class="st17" d="M119.51,409.94c60.43-102.9,120.71-139.16,174.55-154.15c-20.83,21.63-41.94,49.45-63.08,85.44
				c-96.77,164.78-45.83,410.92,30.55,479.32c67.74,60.66,271.59,133.92,463.12,61.55c-19.69,21.86-39.05,33.58-39.05,33.58
				c-209.7,126.43-459.16,41.98-535.54-26.42C73.68,820.86,22.74,574.72,119.51,409.94z"/>
			<g>
				<polygon class="st18" points="583.21,494.58 600.73,547.31 547.34,526.24 				"/>
				<path class="st19" d="M528.18,337.66c3.56,0.15,13.31,3.41,27.57,30.36c18.21,34.42,44.83,138.39,44.83,138.39l-79.45,29.59
					l-10.21-21.7l-16.81-167.07C494.11,347.23,527.19,337.62,528.18,337.66z"/>
				<path class="st19" d="M423.15,322.68c22.72,0.03,78.93,6.66,105.03,14.99c0,0,19.17,164.75-17.26,289.93
					c-8.15,28.02,6.74,116.16,6.74,116.16l-235.43-3.11c0,0,27.89-213.09,17.38-247.5c-10.51-34.42-10.76-154.37-10.76-154.37
					s1.61-0.25,52.89-9.12C365.67,325.53,398.89,322.64,423.15,322.68z"/>
				<path class="st20" d="M395.71,1049.54c0,0,5.21,60.11,14.78,76.76c9.58,16.65-0.5,44.95-1.01,48.83
					c-0.5,3.88-20.16,9.43-51.41,6.1c-31.25-3.33-30.75-10.54-28.22-22.2c2.52-11.65,19.15-26.64,20.16-37.73
					c1.01-11.1-9.58-51.05-9.58-51.05L395.71,1049.54z"/>
				<path class="st21" d="M491.1,694.15c0,0,162.52-9.02,198.81,12.96c36.29,21.98-6.56,67.11-6.56,67.11
					s-132.31,57.53-353.81,70.31c-52.45,3.03-56.97-136.77-47.17-148.33C292.18,684.62,491.1,694.15,491.1,694.15z"/>
				<path class="st22" d="M354.18,1185.9c-32.18-3.43-28.2-19.24-25.6-31.24c1.62-7.51,10.85-16.37,16.36-24.75
					c2.88,2.29,7.56,6.34,21.53,10.46c14.51,4.29,34.4-4.2,47.08-9.51c4.52,16.81,4.72,38.26,4.3,41.51
					C417.33,1176.38,386.36,1189.33,354.18,1185.9z"/>
				<path class="st4" d="M371.94,810.41c6.49,49.13,38.64,293.73,38.64,293.73l-74.59,9.25c0,0-91.73-319.25-87.03-368.08
					c4.7-48.83,39.04-52.94,39.04-52.94S354.76,680.35,371.94,810.41z"/>
				<path class="st20" d="M286.3,357.09c22.01-8.26,32.78,190.08,35.75,271.71c38.98,3.75,106.93,0.03,123.84-1.24
					c7.96-0.6,26.3-7.32,34.21-8.35c8.11-1.06,15.46-1.62,19.45-0.92c1.46,0.26,42.09,16.87,45.57,20.51
					c4.31,4.52,15.96,15.92,14,20.85c-1.97,4.93-22.41-13.73-22.41-13.73l-9.99-5.61c12.44,12.15,36.16,28.16,32.75,33.98
					c-3.33,5.68-24.74-10.56-39.99-21.63c13.08,11.82,29.34,32.96,25.59,36.26c-3.37,2.96-21.85-21.52-41.61-28.57
					c-7.32-2.61-14.62,4.62-20.38,5.5c-4.23,0.64-10.77,2.01-14.92,0.83l-21.39-6.07c-7.29,0.66-7.47,4.97-14.83,6.54
					c-8.54,1.82-22.56,3.73-33.44,6.39c-62.65,15.31-83.55,22.42-102.73,22.41C237.64,695.92,234.27,376.61,286.3,357.09z"/>
				<path class="st19" d="M244.52,543.29c-4.12-83.62-3.52-186.69,43.36-204.27c18.49-6.94,51.1,34.78,45.24,205.97
					C308.09,547.06,271.35,548.72,244.52,543.29z"/>
				<polygon class="st18" points="506.77,507.37 501.99,507.37 430.16,683.89 435.11,683.13 				"/>
				<path class="st20" d="M613.84,1100.96c0,0-6.51,20.87,5.15,34.67c11.65,13.8,60.08,27.34,66.44,34.81
					c6.36,7.47,5.88,13.84,5.88,13.84l-135.92-3.74l1.48-41.05l6.26-29.5L613.84,1100.96z"/>
				<path class="st22" d="M627.44,1142.51c0,0-34.93,14.13-51.8,5.76c-16.87-8.37-16.36-10.68-21.24-7.56
					c-4.88,3.12-6.63,41.6-6.63,41.6l152.84,4.49c10.64-0.25,16.01-8.08,7.37-14.78c-5.93-4.6-12.77-7.67-16.66-9.91
					C679.37,1155.25,627.44,1142.51,627.44,1142.51z"/>
				<path class="st4" d="M608.69,732.67c10.5-22.11,34.4-50.89,76.44-33.56c40.1,16.53,50.86,57.17,38.21,98.78
					c-12.65,41.61-95.93,286.23-98.84,319.87l-66.5,0.44c0,0,12.09-193.69,15.05-240.51C575.91,832.64,590.51,770.93,608.69,732.67z
					"/>
				<path d="M716.64,507.37H494.36c-5.88,0-11.18,3.56-13.41,9.03l-68.44,167.5H289.96c-3.43,0-6.2,2.78-6.2,6.22l0,0
					c0,3.43,2.78,6.22,6.2,6.22h348.77c9.59,0,18.28-5.65,22.21-14.42l68.92-154.04C734.17,518.24,727.15,507.37,716.64,507.37z"/>
				<path class="st23" d="M596.96,604.9c-1.5,7.52-8.04,12.55-14.61,11.24c-6.57-1.32-10.67-8.48-9.17-16.01
					c1.5-7.52,8.04-12.56,14.61-11.24C594.36,590.21,598.47,597.38,596.96,604.9z"/>
				<g>
					<path class="st24" d="M475.97,121.46c-6.7-2.26-13.3-4.8-19.66-7.87c-7.2-3.47-16.53-7.54-22.42-8.45
						c-12.41-1.92-33.72-0.64-45.49,12.13c-14.66,15.91-40.71,2.87-35.47,86.18c5.94,94.29,58.37,83.94,59.64,82.34
						c1.27-1.6,46.76-60.32,46.76-60.32s15.9,34.79,15.9,33.51C475.24,257.75,556.44,148.56,475.97,121.46z"/>
					<path class="st20" d="M436.17,292.75l4.53,33.69c0,0,10.14,48.54-2.91,57.9c-13.04,9.36-55.47-59.28-55.47-59.28l4.48-85.37
						L436.17,292.75z"/>
					<path class="st25" d="M385.36,267.36c10.77,29.12,36.44,47.02,54.65,53.96l-3.84-28.56l-49.37-53.06L385.36,267.36z"/>
					<path class="st20" d="M433.49,146.79c27.64-4.46,52.43,17.77,51.74,45.43c-0.3,12.03-1.29,27.04-3.79,43.21
						c-6.01,38.89-32.54,73.14-50.09,70.08c-17.55-3.06-61.69-36.61-53.92-91.95C382.24,179.39,404.49,151.47,433.49,146.79z"/>
					<path class="st20" d="M389.61,220.17c-1.48,8.55-8.33,14.5-15.3,13.29c-6.97-1.22-11.42-9.13-9.94-17.69
						c1.48-8.55,8.33-14.5,15.3-13.29C386.64,203.7,391.09,211.61,389.61,220.17z"/>
					<path class="st24" d="M379.67,202.48c0,0,21.21,5.27,29.09-8.37c7.87-13.64,36.02-43.09,71.81-30.88
						c35.78,12.21-31.49-29.68-34.35-29.68S409,133.31,409,133.31s-26.48,21.78-27.44,24.18c-0.95,2.39-8.59,28.48-8.59,28.48
						L379.67,202.48z"/>
				</g>
				<path class="st23" d="M418.48,259.41l38.6,7.38c0,0-3.68,14.54-20.75,11.79C415.52,275.22,418.48,259.41,418.48,259.41z"/>
			</g>
		</g>
		<g class="st1">
			<path class="st26" d="M1116.3-347.02h371.1c20.19,0,36.55,16.27,36.55,36.35v151.09c0,20.07-16.37,36.34-36.55,36.34h-283.01
				l-56.54,41.34l11.37-41.34h-42.93c-20.19,0-36.55-16.27-36.55-36.34v-151.09C1079.75-330.75,1096.11-347.02,1116.3-347.02z"/>
			<g>
				<g class="st3">
					<path class="st17" d="M1215.42-194.18c-7.26,0-14.52,0-21.78,0v-33.45h-25.71v33.45c-7.26,0-14.64,0-21.78,0v-83.33
						c7.14,0,14.52,0,21.78,0v30.24h25.71v-30.24c7.26,0,14.52,0,21.78,0V-194.18z"/>
					<path class="st17" d="M1228.51-258.46c0-6.43,0-12.74,0-19.05h61.9c0,6.31,0,12.62,0,19.05h-20.36v64.28
						c-7.02,0-14.04,0-21.07,0v-64.28H1228.51z"/>
					<path class="st17" d="M1377.2-277.75h7.62v83.56c-7.26,0-14.52,0-21.78,0v-37.14l-17.74,18.57h-2.38l-17.62-18.57v37.14
						c-7.26,0-14.53,0-21.79,0v-83.56h7.86l32.62,36.18L1377.2-277.75z"/>
					<path class="st17" d="M1427.32-213.35h30.24c0,7.14,0,12.02,0,19.16c-17.14,0-34.76,0-51.66,0v-83.33c7.14,0,14.17,0,21.43,0
						C1427.32-234.42,1427.32-248.82,1427.32-213.35z"/>
				</g>
			</g>
		</g>
		<g>
			<path class="st27" d="M965.82-186.84h-359.1c-18.47,0-33.44,14.88-33.44,33.25V3.48c0,18.36,14.97,33.25,33.44,33.25h62.22
				l-19.71,47.99l63.61-47.99h252.98c18.47,0,33.44-14.88,33.44-33.25v-157.08C999.25-171.95,984.28-186.84,965.82-186.84z"/>
			<g class="st1">
				<g class="st3">
					<path class="st28" d="M661.62-31.76c0-28.82,0-57.64,0-86.58c12.49,0,25.35,0,38.1,0c41.44,0.13,41.44,64.45,0,64.45h-15.95
						v22.14C676.34-31.76,668.92-31.76,661.62-31.76z M699.6-98.56c-5.2-0.12-10.76,0-15.83,0c0,7.05,0,17.69,0,24.74h15.83
						C711.72-73.81,712.46-98.43,699.6-98.56z"/>
					<path class="st28" d="M819.59-31.76c-7.54,0-15.09,0-22.64,0v-34.76h-26.71v34.76c-7.55,0-15.22,0-22.64,0v-86.58
						c7.42,0,15.09,0,22.64,0v31.42h26.71v-31.42c7.54,0,15.09,0,22.64,0V-31.76z"/>
				</g>
			</g>
		</g>
	</g>
</g>
</svg>
